<svg width="49" height="36" viewBox="0 0 49 36" fill="none" xmlns="http://www.w3.org/2000/svg">
<path d="M44.1392 0H5.13922C2.60797 0 0.639217 2.0625 0.639217 4.5V31.5C0.639217 34.0312 2.60797 36 5.13922 36H44.1392C46.5767 36 48.6392 34.0312 48.6392 31.5V4.5C48.6392 2.0625 46.5767 0 44.1392 0ZM44.1392 4.5V8.34375C41.983 10.125 38.608 12.75 31.483 18.375C29.8892 19.5938 26.7955 22.5938 24.6392 22.5C22.3892 22.5938 19.2955 19.5938 17.7017 18.375C10.5767 12.75 7.20172 10.125 5.13922 8.34375V4.5H44.1392ZM5.13922 31.5V14.1562C7.20172 15.8438 10.2955 18.2812 14.8892 21.9375C16.9517 23.5312 20.608 27.0938 24.6392 27C28.5767 27.0938 32.1392 23.5312 34.2955 21.9375C38.8892 18.2812 41.983 15.8438 44.1392 14.1562V31.5H5.13922Z" fill="#F7654A"/>
</svg>
